<svg version="1.1" xmlns="http://www.w3.org/2000/svg" xmlns:xlink="http://www.w3.org/1999/xlink" width="48" height="48"><defs><linearGradient x1="9.1503" y1="9.1503" x2="74.31611" y2="74.31611" gradientUnits="userSpaceOnUse" id="color-1"><stop offset="0" stop-color="#000000" stop-opacity="0.39"></stop><stop offset="1" stop-color="#000000" stop-opacity="0"></stop></linearGradient><filter id="dropshadow-base"><feColorMatrix type="matrix" values="0 0 0 0 0  0 0 0 0 0  0 0 0 0 0  0 0 0 .8 0"></feColorMatrix> <feOffset dx="0" dy="1"></feOffset> <feGaussianBlur stdDeviation="1"></feGaussianBlur> <feComposite in="SourceGraphic"></feComposite></filter><filter id="dropshadow-banner" x="-10%" y="-10%" width="120%" height="130%"><feColorMatrix type="matrix" values="0 0 0 0 0  0 0 0 0 0  0 0 0 0 0  0 0 0 .4 0"></feColorMatrix> <feOffset dx="0" dy="1"></feOffset> <feGaussianBlur stdDeviation="0.5"></feGaussianBlur> <feComposite in="SourceGraphic"></feComposite></filter></defs><g fill="none" fill-rule="nonzero" stroke="none" stroke-width="none" stroke-linecap="butt" stroke-linejoin="miter" stroke-miterlimit="10" stroke-dasharray="" stroke-dashoffset="0" font-family="none" font-weight="none" font-size="none" text-anchor="none" style="mix-blend-mode: normal"><path d="M7,43c-1.10457,0 -2,-0.89543 -2,-2v-34c0,-1.10457 0.89543,-2 2,-2h34c1.10457,0 2,0.89543 2,2v34c0,1.10457 -0.89543,2 -2,2z" id="base 1 5 1" fill="#ffb541" stroke-width="1"></path><path d="M34.50152,13.49848l8.49848,8.49848v19.00305c0,1.10457 -0.89543,2 -2,2h-19.00305l-8.49848,-8.49848c-2.68687,-2.68687 -4.34818,-6.39929 -4.34818,-10.50152c0,-8.20446 6.64524,-14.8497 14.8497,-14.8497c4.10223,0 7.81466,1.66131 10.50152,4.34818z" fill="url(#color-1)" stroke-width="1"></path><path d="M24,9.1503c-8.20446,0 -14.8497,6.64524 -14.8497,14.8497c0,8.20446 6.64524,14.8497 14.8497,14.8497c8.20446,0 14.8497,-6.64524 14.8497,-14.8497c0,-8.20446 -6.64524,-14.8497 -14.8497,-14.8497zM24,13.60521c2.45763,0 4.45491,1.99728 4.45491,4.45491c0,2.46505 -1.99728,4.45491 -4.45491,4.45491c-2.45763,0 -4.45491,-1.98986 -4.45491,-4.45491c0,-2.45763 1.99728,-4.45491 4.45491,-4.45491zM24,34.69178c-3.71985,0 -6.98678,-1.90076 -8.90982,-4.7816c0.03712,-2.94767 5.94731,-4.57371 8.90982,-4.57371c2.96252,0 8.86527,1.62604 8.90982,4.57371c-1.92304,2.88084 -5.18997,4.7816 -8.90982,4.7816z" fill="none" stroke-width="0"></path><path d="M38.8497,24c0,8.20446 -6.64524,14.8497 -14.8497,14.8497c-8.20446,0 -14.8497,-6.64524 -14.8497,-14.8497c0,-8.20446 6.64524,-14.8497 14.8497,-14.8497c8.20446,0 14.8497,6.64524 14.8497,14.8497zM19.54509,18.06012c0,2.46505 1.99728,4.45491 4.45491,4.45491c2.45763,0 4.45491,-1.98986 4.45491,-4.45491c0,-2.45763 -1.99728,-4.45491 -4.45491,-4.45491c-2.45763,0 -4.45491,1.99728 -4.45491,4.45491zM32.90982,29.91018c-0.04455,-2.94767 -5.94731,-4.57371 -8.90982,-4.57371c-2.96252,0 -8.8727,1.62604 -8.90982,4.57371c1.92304,2.88084 5.18997,4.7816 8.90982,4.7816c3.71985,0 6.98678,-1.90076 8.90982,-4.7816z" fill="#ffffff" stroke-width="0"></path><path d="M2,24c0,-12.15026 9.84974,-22 22,-22c12.15026,0 22,9.84974 22,22c0,12.15026 -9.84974,22 -22,22c-12.15026,0 -22,-9.84974 -22,-22z" id="base 1 1 1" fill="none" stroke-width="1"></path><g fill="#000000" stroke-width="1" font-family="Roboto, sans-serif" font-weight="400" font-size="14" text-anchor="start"></g><rect x="2" y="2" width="44" height="22" fill="none" stroke-width="1"></rect><path d="M2,24v-22h44v22z" fill="none" stroke-width="1"></path><path d="M2,24v-22h44v22z" fill="none" stroke-width="1"></path><path d="M2,24v-22h44v22z" fill="none" stroke-width="1"></path><path d="M2,24v-22h44v22z" fill="none" stroke-width="1"></path></g></svg>