<?xml version="1.0" standalone="no"?>
<!DOCTYPE svg PUBLIC "-//W3C//DTD SVG 20010904//EN"
 "http://www.w3.org/TR/2001/REC-SVG-20010904/DTD/svg10.dtd">
<svg version="1.0" xmlns="http://www.w3.org/2000/svg"
 width="1132.000000pt" height="1132.000000pt" viewBox="0 0 1132.000000 1132.000000"
 preserveAspectRatio="xMidYMid meet">
<metadata>
Created by potrace 1.11, written by Peter Selinger 2001-2013
</metadata>
<g transform="translate(0.000000,1132.000000) scale(0.100000,-0.100000)"
fill="#000000" stroke="none">
<path d="M2465 10293 c-433 -24 -965 -206 -1352 -462 -335 -222 -555 -482
-758 -896 -139 -282 -252 -601 -331 -930 l-26 -110 5 -605 c6 -614 12 -753 47
-1075 41 -370 123 -773 169 -829 7 -8 44 -93 82 -188 59 -147 200 -445 319
-673 17 -33 44 -86 60 -117 16 -31 194 -297 395 -592 l367 -536 81 -44 c246
-134 483 -190 852 -202 l190 -7 95 32 c278 94 518 262 619 434 97 165 181 499
181 717 0 183 -38 342 -133 557 -85 194 -273 481 -414 634 -83 89 -239 217
-392 320 -73 50 -145 103 -160 118 -14 15 -62 57 -107 93 -255 210 -473 505
-504 684 -11 67 -10 74 28 224 72 286 104 326 358 452 208 103 280 122 449
121 108 0 127 -3 185 -28 145 -61 442 -261 528 -357 l43 -46 -13 -86 -12 -86
-171 169 c-102 102 -180 172 -195 175 -31 6 -694 46 -698 41 -4 -4 84 -905 89
-909 5 -5 1140 -746 1158 -755 8 -5 85 -321 207 -852 106 -464 196 -854 199
-867 3 -13 24 -43 45 -66 35 -38 40 -49 40 -90 0 -26 5 -56 10 -66 6 -10 33
-290 61 -622 l51 -603 362 -365 363 -365 52 -195 53 -195 162 -97 161 -97 175
-16 c216 -20 224 -20 440 0 l175 16 161 97 162 97 53 195 52 195 363 365 362
365 51 603 c28 332 55 612 61 622 5 10 10 40 10 66 0 41 5 52 40 90 21 23 42
53 45 66 3 13 93 403 199 867 122 531 199 847 207 852 18 9 1153 750 1158 755
5 4 93 905 89 909 -4 5 -667 -35 -698 -41 -15 -3 -93 -73 -195 -175 l-171
-169 -12 86 -13 86 43 46 c86 96 383 296 528 357 58 25 77 28 185 28 169 1
241 -18 449 -121 254 -126 286 -166 358 -452 38 -150 39 -157 28 -224 -31
-179 -249 -474 -504 -684 -45 -36 -93 -78 -107 -93 -15 -15 -87 -68 -160 -118
-153 -103 -309 -231 -392 -320 -141 -153 -329 -440 -414 -634 -95 -215 -133
-374 -133 -557 0 -218 84 -552 181 -717 101 -172 341 -340 619 -434 l95 -32
190 7 c369 12 606 68 852 202 l81 44 367 536 c201 295 379 561 395 592 16 31
43 84 60 117 119 228 260 526 319 673 38 95 75 180 82 188 46 56 128 459 169
829 35 322 41 461 47 1075 l5 605 -26 110 c-141 589 -384 1122 -665 1457 -285
340 -800 632 -1355 768 -384 94 -914 91 -1356 -6 -216 -48 -404 -118 -649
-240 -525 -262 -753 -416 -1012 -680 -190 -196 -352 -397 -509 -634 -45 -69
-86 -125 -90 -125 -4 0 -45 56 -90 125 -282 426 -610 774 -926 982 -272 180
-748 421 -975 496 -372 122 -765 169 -1204 145z m465 -113 c217 -17 534 -72
528 -92 -2 -5 -316 -222 -698 -482 l-695 -474 -41 24 c-58 34 -193 82 -294
105 -101 23 -322 35 -402 22 -39 -7 -55 -6 -53 1 2 6 34 121 70 256 37 135 73
269 82 299 l15 53 95 44 c200 93 495 186 689 219 203 33 467 43 704 25z m6093
-15 c215 -28 504 -115 741 -220 70 -32 111 -56 117 -69 7 -17 56 -193 158
-572 l8 -31 -56 10 c-79 13 -300 1 -401 -22 -101 -23 -236 -71 -294 -105 l-41
-24 -695 474 c-382 260 -696 477 -698 482 -6 18 308 75 507 92 149 12 514 4
654 -15z m-5258 -172 c191 -77 597 -293 805 -428 101 -65 274 -201 328 -257
l32 -34 -1011 -538 c-556 -296 -1012 -536 -1013 -534 -274 390 -519 686 -674
813 -34 27 -58 53 -54 56 4 4 328 226 721 493 558 380 719 485 735 480 12 -3
71 -26 131 -51z m4656 -429 c393 -267 717 -489 721 -493 4 -3 -20 -29 -54 -56
-155 -127 -400 -423 -674 -813 -1 -2 -457 238 -1013 534 l-1011 538 32 34 c54
56 227 192 328 257 216 140 617 353 820 434 69 28 128 51 131 51 4 0 328 -219
720 -486z m-7121 239 c0 -5 -35 -136 -78 -292 l-78 -284 -92 -56 c-51 -31
-120 -76 -153 -101 -78 -57 -212 -188 -269 -263 -24 -32 -46 -54 -50 -50 -4 4
-22 60 -40 124 l-33 115 63 105 c165 274 342 459 613 640 100 68 117 76 117
62z m8818 -49 c273 -178 465 -376 632 -653 l63 -105 -33 -115 c-18 -64 -36
-120 -40 -124 -4 -4 -26 18 -50 50 -57 75 -191 206 -269 263 -33 25 -102 70
-153 101 l-92 56 -78 284 c-43 156 -78 287 -78 292 0 13 11 8 98 -49z m-5031
-641 c201 -224 498 -638 468 -655 -81 -48 -2133 -1038 -2150 -1038 -19 0 -39
28 -125 178 -56 97 -149 251 -206 342 l-103 165 137 72 c75 40 533 284 1017
542 484 258 883 470 886 470 3 1 38 -34 76 -76z m2209 -449 c544 -289 1003
-533 1021 -543 l32 -16 -103 -165 c-57 -91 -150 -245 -206 -342 -86 -150 -106
-178 -125 -178 -17 0 -2069 990 -2150 1038 -30 17 267 431 468 655 38 42 71
77 72 77 1 0 447 -237 991 -526z m-5660 501 c109 -18 206 -46 288 -86 l61 -30
310 -645 c171 -355 335 -698 366 -763 l56 -117 -134 1 -133 1 -601 808 c-446
601 -597 811 -587 817 7 5 29 11 48 15 19 3 40 7 45 9 27 9 201 3 281 -10z
m8402 -5 c17 -7 32 -14 32 -16 0 -2 -270 -367 -600 -811 l-600 -807 -133 -1
-134 -1 56 117 c31 65 196 408 366 763 l310 645 62 30 c77 37 178 68 280 87
91 16 312 12 361 -6z m-8298 -869 l591 -793 -63 -23 c-35 -12 -91 -36 -125
-53 l-62 -32 -723 601 c-398 331 -726 604 -730 608 -11 10 117 176 200 258 41
41 100 93 131 118 68 51 173 116 184 112 4 -1 273 -359 597 -796z m8504 763
c86 -51 163 -113 248 -197 83 -82 211 -248 200 -258 -4 -4 -332 -277 -730
-608 l-723 -601 -62 32 c-34 17 -90 41 -125 53 l-63 23 592 796 c326 438 595
796 598 796 3 0 33 -16 65 -36z m-7951 -256 c328 -354 674 -856 996 -1447 53
-97 89 -196 76 -210 -2 -2 -46 28 -97 67 -110 82 -325 224 -366 241 -26 11
-66 89 -362 704 -183 381 -339 704 -347 720 -25 50 5 28 100 -75z m6834 75
c-8 -16 -164 -339 -347 -720 -296 -615 -336 -693 -362 -704 -41 -17 -256 -159
-366 -241 -51 -39 -95 -69 -97 -67 -13 14 23 113 76 210 322 591 668 1093 996
1447 95 103 125 125 100 75z m-8658 -144 l31 -106 -46 -79 c-140 -244 -251
-530 -318 -824 l-25 -105 0 135 c-1 126 2 147 38 290 21 85 58 214 81 285 62
192 195 524 204 514 2 -2 18 -52 35 -110z m10447 54 c93 -208 195 -503 255
-743 36 -143 39 -164 38 -290 l0 -135 -25 105 c-67 294 -178 580 -318 824
l-46 79 32 108 c17 60 33 109 35 109 2 0 15 -26 29 -57z m-9644 -867 l696
-579 -59 -39 c-55 -37 -129 -111 -129 -130 0 -4 -7 -8 -15 -8 -9 0 -304 77
-658 171 -353 94 -694 184 -757 201 -63 16 -119 33 -123 38 -11 10 36 217 80
355 49 154 103 285 174 427 64 128 77 151 89 146 3 -2 320 -264 702 -582z
m9555 459 c68 -131 144 -316 191 -465 40 -128 85 -331 75 -340 -4 -5 -60 -22
-123 -38 -63 -17 -404 -107 -757 -201 -354 -94 -649 -171 -658 -171 -8 0 -15
4 -15 8 0 19 -74 93 -129 130 l-59 39 696 581 c384 319 702 579 707 578 6 -1
38 -56 72 -121z m-4087 -519 l1075 -524 42 -279 c23 -153 42 -285 43 -294 0
-12 -47 -23 -242 -58 -134 -23 -253 -45 -266 -49 -19 -6 -117 -201 -537 -1066
-283 -583 -515 -1062 -515 -1065 0 -3 22 -16 49 -27 l49 -22 74 152 c41 83
142 290 224 459 l148 308 258 -2 257 -1 173 195 c95 107 174 194 176 192 1 -1
-97 -435 -218 -965 l-221 -962 -304 -339 c-168 -186 -305 -342 -305 -347 0 -5
18 -23 40 -40 l39 -32 207 230 c114 126 208 229 209 227 1 -1 -20 -256 -46
-567 l-49 -565 -343 -342 -342 -343 -357 0 -358 0 0 328 0 328 271 55 271 55
80 218 c44 119 77 223 75 231 -3 7 -25 19 -50 28 l-45 15 -72 -199 c-40 -109
-74 -199 -74 -199 -1 0 -113 -22 -249 -50 l-247 -49 -247 49 c-136 28 -248 50
-249 50 0 0 -34 90 -74 199 l-72 199 -45 -15 c-25 -9 -47 -21 -50 -28 -2 -8
31 -112 75 -231 l80 -218 271 -55 271 -55 0 -328 0 -328 -358 0 -357 0 -342
343 -343 342 -49 565 c-26 311 -47 566 -46 567 1 2 95 -101 209 -227 l207
-230 39 32 c22 17 40 35 40 40 0 5 -137 161 -305 347 l-304 339 -221 962
c-121 530 -219 964 -218 965 2 2 81 -85 176 -192 l173 -195 257 1 258 2 148
-308 c82 -169 183 -376 224 -459 l74 -152 49 22 c27 11 49 24 49 27 0 3 -232
482 -515 1065 -420 865 -518 1060 -537 1066 -13 4 -132 26 -265 49 -196 35
-243 46 -243 58 1 9 20 141 43 294 l42 279 1070 523 c589 288 1075 524 1081
524 5 1 494 -235 1084 -523z m-5780 -601 c404 -107 740 -197 746 -199 7 -3 0
-47 -22 -131 -18 -70 -34 -128 -36 -130 -2 -1 -156 -25 -343 -53 -187 -28
-517 -79 -734 -112 -217 -33 -397 -57 -400 -54 -11 11 -5 568 7 684 19 176 23
199 36 194 6 -2 342 -92 746 -199z m10177 54 c15 -142 25 -720 12 -733 -3 -3
-183 21 -400 54 -217 33 -547 84 -734 112 -187 28 -342 52 -343 54 -3 2 -59
215 -65 247 -2 8 1502 418 1511 412 1 -1 10 -67 19 -146z m-8415 -250 l196
-12 196 -196 196 -196 48 -310 c27 -170 49 -321 49 -335 0 -14 12 -83 27 -154
15 -71 26 -136 24 -146 -2 -13 -115 56 -498 307 -272 178 -500 327 -506 331
-7 4 -24 132 -43 332 -17 179 -34 343 -37 364 l-6 39 78 -6 c44 -4 168 -12
276 -18z m6224 -16 c-3 -21 -20 -184 -37 -363 -19 -200 -36 -328 -43 -332 -6
-4 -234 -153 -506 -331 -383 -251 -496 -320 -498 -307 -2 10 9 75 24 146 15
71 27 140 27 154 0 14 22 165 49 335 l48 310 196 196 196 196 226 15 c125 8
249 16 275 16 l49 2 -6 -37z m-7304 -448 c10 -53 32 -119 59 -175 23 -50 40
-92 38 -94 -4 -3 -198 -157 -225 -177 -6 -5 -54 -2 -110 6 -142 22 -372 29
-485 16 -126 -14 -211 -41 -289 -92 -70 -45 -200 -165 -200 -184 0 -7 35 -34
77 -60 97 -59 323 -217 323 -224 -1 -6 -416 -334 -430 -339 -9 -3 -72 161 -94
243 -37 145 -96 541 -119 802 l-13 141 116 17 c63 10 385 60 715 110 330 51
605 93 610 94 6 1 18 -37 27 -84z m8796 -30 c381 -58 696 -105 700 -105 26 0
-73 -745 -124 -945 -22 -82 -85 -246 -94 -243 -14 5 -429 333 -430 339 0 7
226 165 323 224 42 26 77 53 77 60 0 19 -130 139 -200 184 -78 51 -163 78
-289 92 -113 13 -343 6 -485 -16 -56 -8 -104 -11 -110 -6 -27 20 -221 174
-225 177 -2 2 15 44 38 94 27 56 49 122 59 175 16 83 17 86 42 81 14 -3 337
-53 718 -111z m-6788 25 c96 -17 185 -33 198 -35 16 -4 36 -33 78 -116 30 -61
53 -113 50 -116 -5 -5 -231 19 -312 33 -31 6 -33 3 -94 -95 -35 -56 -65 -100
-66 -98 -4 4 -74 433 -74 454 0 11 7 14 23 10 12 -3 101 -20 197 -37z m4240
26 c0 -20 -70 -449 -74 -453 -1 -2 -31 42 -66 98 -61 98 -63 101 -94 95 -81
-14 -307 -38 -312 -33 -4 4 102 226 109 227 1 1 94 18 207 39 245 46 230 44
230 27z m-3986 -403 l139 -17 150 -305 c82 -168 157 -325 168 -348 l18 -43
-203 0 -204 0 -214 240 c-117 133 -215 245 -216 251 -2 5 22 51 54 102 97 155
91 149 133 143 20 -3 99 -13 175 -23z m3803 -93 c40 -63 72 -120 70 -127 -1
-7 -98 -120 -215 -253 l-214 -240 -204 0 -203 0 18 43 c11 23 87 180 169 350
132 268 154 307 174 308 13 0 84 9 158 19 74 10 144 18 154 17 14 -1 44 -39
93 -117z m-5847 53 c25 -32 76 -91 114 -131 l70 -73 -55 22 c-62 25 -282 102
-318 112 -22 5 -18 10 50 66 41 33 79 60 84 60 6 1 30 -25 55 -56z m7737 -4
c70 -55 74 -61 52 -66 -36 -10 -256 -87 -318 -112 l-55 -22 70 73 c38 40 89
99 114 131 25 31 48 57 53 57 4 0 42 -27 84 -61z m-8504 -261 c-36 -90 -70
-166 -75 -169 -6 -4 -12 -21 -14 -39 -5 -44 -12 -52 -32 -40 -48 30 -84 54
-222 148 -169 116 -165 107 -73 168 98 65 203 90 385 93 l96 1 -65 -162z
m9377 142 c69 -15 163 -60 214 -104 l39 -33 -152 -104 c-139 -95 -175 -119
-223 -149 -20 -12 -27 -4 -32 40 -2 18 -8 35 -14 39 -5 3 -40 80 -76 170 l-65
164 127 -6 c70 -3 152 -11 182 -17z m-9029 -15 c122 -21 190 -38 362 -92 9 -3
17 -10 17 -15 0 -5 -102 -141 -227 -303 l-226 -294 -27 22 c-161 132 -250 213
-250 228 0 31 183 479 195 479 7 0 77 -11 156 -25z m8697 -205 c51 -127 92
-239 92 -249 0 -15 -89 -96 -250 -228 l-27 -22 -226 294 c-125 162 -227 298
-227 303 0 8 100 43 218 77 31 9 282 53 308 54 17 1 33 -31 112 -229z m-8065
6 c15 -5 27 -13 27 -17 0 -8 98 -52 121 -54 35 -3 303 -169 297 -184 -2 -5
-138 -125 -303 -268 -165 -144 -339 -295 -386 -336 l-86 -75 -69 90 c-38 50
-76 101 -84 113 -25 37 -79 95 -88 95 -5 0 -19 11 -32 25 -16 17 -20 28 -13
37 6 7 117 151 247 320 l237 307 52 -21 c29 -11 64 -26 80 -32z m7543 -253
c130 -170 241 -314 247 -321 7 -9 3 -20 -13 -37 -13 -14 -27 -25 -32 -25 -9 0
-63 -58 -88 -95 -8 -12 -46 -63 -84 -113 l-69 -90 -86 75 c-47 41 -221 192
-386 336 -165 143 -301 263 -303 268 -6 15 262 181 297 184 20 2 114 43 121
54 4 5 143 68 157 71 1 0 109 -138 239 -307z m-8545 -152 c74 -60 183 -155
242 -211 l107 -102 -273 -282 c-150 -154 -292 -301 -314 -326 -23 -25 -43 -43
-46 -40 -2 3 -30 50 -62 104 -118 206 -292 573 -278 587 20 19 479 379 483
379 3 0 66 -49 141 -109z m9559 -77 c129 -102 238 -189 243 -193 14 -14 -160
-381 -278 -587 -32 -54 -60 -101 -62 -104 -3 -3 -23 15 -46 40 -22 25 -164
172 -314 326 l-273 282 107 102 c94 90 370 320 383 320 3 0 111 -84 240 -186z
m-7930 91 c43 -36 102 -91 131 -123 60 -65 194 -241 188 -246 -7 -6 -544 -274
-814 -406 l-261 -127 -63 123 -64 122 24 32 c13 17 44 51 69 75 50 48 703 615
709 615 1 0 38 -29 81 -65z m6335 -221 c352 -305 406 -354 444 -404 l24 -32
-64 -122 -63 -123 -261 127 c-270 132 -807 400 -814 406 -5 5 100 145 168 223
49 57 218 210 231 211 3 0 154 -129 335 -286z m-7487 -250 c51 -64 168 -238
204 -304 l25 -45 -225 -353 -224 -353 -57 32 c-137 76 -242 174 -363 340 l-56
75 56 60 c162 171 585 604 591 603 3 0 26 -25 49 -55z m8544 -216 c145 -150
289 -300 320 -332 l56 -60 -56 -75 c-121 -166 -226 -264 -363 -340 l-57 -32
-224 353 -225 353 25 45 c60 109 236 358 253 359 4 1 126 -122 271 -271z
m-6975 170 c90 -143 189 -387 218 -539 16 -84 19 -216 9 -306 -6 -47 -9 -53
-30 -53 -36 0 -1277 150 -1282 155 -4 4 -32 192 -36 238 -1 14 115 75 534 282
294 146 541 265 547 265 7 0 25 -19 40 -42z m5673 -223 c419 -207 535 -268
534 -282 -4 -46 -32 -234 -36 -238 -5 -5 -1246 -155 -1282 -155 -21 0 -24 6
-30 53 -19 160 0 317 60 490 56 160 179 397 207 397 6 0 253 -119 547 -265z
m-6911 -310 c37 -112 52 -341 30 -445 -14 -64 -47 -104 -105 -126 -39 -15 -55
-16 -126 -5 -121 17 -240 51 -234 66 4 11 201 324 354 564 35 54 35 54 48 30
7 -13 22 -51 33 -84z m7810 -208 c100 -159 184 -294 187 -301 6 -16 -112 -50
-234 -67 -71 -11 -87 -10 -126 5 -85 33 -116 100 -116 254 0 152 21 275 63
375 16 39 22 46 32 35 7 -7 94 -143 194 -301z m-6984 -198 c330 -39 602 -73
604 -76 10 -9 -62 -232 -102 -312 -67 -138 -183 -245 -382 -352 -67 -37 -80
-40 -98 -30 -11 7 -183 146 -383 308 l-363 295 13 27 c17 32 36 130 36 184 l0
39 38 -6 c20 -3 307 -38 637 -77z m6585 43 c0 -53 19 -151 36 -183 l13 -27
-363 -295 c-200 -162 -372 -301 -383 -308 -18 -10 -31 -7 -98 30 -199 107
-315 214 -382 352 -40 80 -112 303 -102 312 3 4 1213 153 1262 156 13 1 17 -7
17 -37z m-7903 -388 c29 -81 52 -149 50 -150 -2 -2 -62 83 -134 189 l-132 193
82 -42 81 -42 53 -148z m8632 41 c-73 -107 -134 -193 -136 -191 -2 1 21 69 50
151 l53 147 80 43 c43 23 80 43 82 44 2 0 -57 -87 -129 -194z m-8364 25 c86
-13 154 -8 210 16 l36 14 354 -287 c246 -199 352 -290 344 -298 -6 -6 -80 -10
-197 -9 -289 1 -475 34 -686 122 l-89 38 -74 204 c-40 113 -76 212 -78 222 -5
15 -1 15 47 3 29 -8 89 -19 133 -25z m8117 -186 l-79 -218 -89 -38 c-211 -88
-397 -121 -686 -122 -117 -1 -191 3 -197 9 -8 8 98 99 344 298 l354 287 37
-15 c59 -25 132 -28 234 -11 52 9 109 20 125 24 17 5 31 8 33 7 1 -1 -33 -100
-76 -221z m-3412 -1914 c0 -24 -74 -276 -84 -287 -6 -7 -67 -47 -136 -89
l-125 -77 -177 -14 c-156 -13 -200 -13 -355 0 l-178 14 -125 77 c-69 42 -130
82 -136 89 -10 11 -84 263 -84 287 0 7 219 10 700 10 481 0 700 -3 700 -10z"/>
</g>
</svg>
