<svg version="1.1" xmlns="http://www.w3.org/2000/svg" xmlns:xlink="http://www.w3.org/1999/xlink" width="48" height="48"><defs><linearGradient x1="12.33059" y1="8.44322" x2="56.88261" y2="60.76998" gradientUnits="userSpaceOnUse" id="color-1"><stop offset="0.36" stop-color="#000000" stop-opacity="0.44"></stop><stop offset="1" stop-color="#000000" stop-opacity="0"></stop></linearGradient><filter id="dropshadow-base"><feColorMatrix type="matrix" values="0 0 0 0 0  0 0 0 0 0  0 0 0 0 0  0 0 0 .8 0"></feColorMatrix> <feOffset dx="0" dy="1"></feOffset> <feGaussianBlur stdDeviation="1"></feGaussianBlur> <feComposite in="SourceGraphic"></feComposite></filter><filter id="dropshadow-banner" x="-10%" y="-10%" width="120%" height="130%"><feColorMatrix type="matrix" values="0 0 0 0 0  0 0 0 0 0  0 0 0 0 0  0 0 0 .4 0"></feColorMatrix> <feOffset dx="0" dy="1"></feOffset> <feGaussianBlur stdDeviation="0.5"></feGaussianBlur> <feComposite in="SourceGraphic"></feComposite></filter></defs><g fill="none" fill-rule="nonzero" stroke="none" stroke-width="none" stroke-linecap="butt" stroke-linejoin="miter" stroke-miterlimit="10" stroke-dasharray="" stroke-dashoffset="0" font-family="none" font-weight="none" font-size="none" text-anchor="none" style="mix-blend-mode: normal"><path d="M7,43c-1.10457,0 -2,-0.89543 -2,-2v-34c0,-1.10457 0.89543,-2 2,-2h34c1.10457,0 2,0.89543 2,2v34c0,1.10457 -0.89543,2 -2,2z" id="base 1 9" fill="#feb945" stroke-width="1"></path><path d="M15.74754,36.13984c-2.11143,-2.11143 -3.41695,-5.02878 -3.41695,-8.25246c0,-4.93763 1.77229,-9.45952 4.70423,-12.96764l5.93038,5.93038c2.62559,-0.33804 4.30223,-2.63258 4.30223,-5.40526c0,-3.13615 -1.07942,-7.00164 -1.07942,-7.00164c0.73877,0.59121 1.4454,1.22376 2.11579,1.89415l14.69619,14.69619v15.96644c0,1.10457 -0.89543,2 -2,2h-18.3923z" fill="url(#color-1)" stroke-width="1"></path><path d="M26.18801,8.44322c0,0 1.07942,3.86549 1.07942,7.00165c0,3.00487 -1.96921,5.44816 -4.98138,5.44816c-3.01217,0 -5.2877,-2.43599 -5.2877,-5.44816l0.03647,-0.52512c-2.93194,3.50812 -4.70423,8.03001 -4.70423,12.96763c0,6.44735 5.22206,11.66941 11.66941,11.66941c6.44735,0 11.66941,-5.22206 11.66941,-11.66941c0,-7.86956 -3.78526,-14.88579 -9.4814,-19.44415zM23.57698,35.18075c-2.59644,0 -4.70423,-2.04944 -4.70423,-4.58024c0,-2.37035 1.52432,-4.03324 4.10617,-4.55107c2.58186,-0.51783 5.25123,-1.7577 6.73179,-3.75609c0.56888,1.88169 0.86791,3.86549 0.86791,5.88576c0,3.8582 -3.13615,7.00165 -7.00165,7.00165z" fill="none" stroke-width="0"></path><path d="M35.66941,27.88737c0,6.44735 -5.22206,11.66941 -11.66941,11.66941c-6.44735,0 -11.66941,-5.22206 -11.66941,-11.66941c0,-4.93762 1.77229,-9.45952 4.70423,-12.96763l-0.03647,0.52512c0,3.01217 2.27553,5.44816 5.2877,5.44816c3.01217,0 4.98138,-2.44328 4.98138,-5.44816c0,-3.13615 -1.07942,-7.00165 -1.07942,-7.00165c5.69613,4.55836 9.4814,11.5746 9.4814,19.44415zM30.57863,28.17911c0,-2.02027 -0.29903,-4.00407 -0.86791,-5.88576c-1.48056,1.99839 -4.14993,3.23826 -6.73179,3.75609c-2.58186,0.51783 -4.10617,2.18072 -4.10617,4.55107c0,2.5308 2.10779,4.58024 4.70423,4.58024c3.86549,0 7.00165,-3.14345 7.00165,-7.00165z" fill="#ffffff" stroke-width="0"></path><path d="M2,24c0,-12.15026 9.84974,-22 22,-22c12.15026,0 22,9.84974 22,22c0,12.15026 -9.84974,22 -22,22c-12.15026,0 -22,-9.84974 -22,-22z" id="base 1 5 1" fill="none" stroke-width="1"></path><path d="M2,24c0,-12.15026 9.84974,-22 22,-22c12.15026,0 22,9.84974 22,22c0,12.15026 -9.84974,22 -22,22c-12.15026,0 -22,-9.84974 -22,-22z" id="base 1 1 1" fill="none" stroke-width="1"></path><g fill="#000000" stroke-width="1" font-family="Roboto, sans-serif" font-weight="400" font-size="14" text-anchor="start"></g><rect x="2" y="2" width="44" height="22" fill="none" stroke-width="1"></rect><path d="M2,24v-22h44v22z" fill="none" stroke-width="1"></path><path d="M2,24v-22h44v22z" fill="none" stroke-width="1"></path><path d="M2,24v-22h44v22z" fill="none" stroke-width="1"></path><path d="M2,24v-22h44v22z" fill="none" stroke-width="1"></path><g fill="#000000" stroke-width="1" font-family="Roboto, sans-serif" font-weight="400" font-size="14" text-anchor="start"></g><rect x="2" y="2" width="44" height="22" fill="none" stroke-width="1"></rect><path d="M2,24v-22h44v22z" fill="none" stroke-width="1"></path><path d="M2,24v-22h44v22z" fill="none" stroke-width="1"></path><path d="M2,24v-22h44v22z" fill="none" stroke-width="1"></path><path d="M2,24v-22h44v22z" fill="none" stroke-width="1"></path></g></svg>